<mxfile host="app.diagrams.net" modified="2023-10-26T21:38:48.102Z" agent="Mozilla/5.0 (Macintosh; Intel Mac OS X 10_15_7) AppleWebKit/605.1.15 (KHTML, like Gecko) Version/17.0 Safari/605.1.15" version="22.0.8" etag="tJvSC_A80yJ95YXVrjZf" type="github">
  <diagram name="Page-1" id="kN2Y6LsENimQDzfeYVQu">
    <mxGraphModel>
      <root>
        <mxCell id="0" />
        <mxCell id="1" parent="0" />
      </root>
    </mxGraphModel>
  </diagram>
</mxfile>
